HIERARCHY
ROOT pelvis
{
  OFFSET 0 100 0
  CHANNELS 6 Xposition Yposition Zposition Zrotation Xrotation Yrotation
  JOINT pelvis_right_femur
  {
    OFFSET -10.78128 -3.44521 -0.5502486
    CHANNELS 3 Zrotation Xrotation Yrotation
    JOINT right_femur_tibia
    {
      OFFSET -0.8047443 -44.0398 -0.1307829
      CHANNELS 3 Zrotation Xrotation Yrotation
      JOINT right_tibia_foot
      {
        OFFSET 3.006224 -47.83518 -5
        CHANNELS 3 Zrotation Xrotation Yrotation
        End Site
        {
          OFFSET 0 -5 15
        }
      }
    }
  }
  JOINT pelvis_left_femur
  {
    OFFSET 10.78128 -3.44521 -0.5502486
    CHANNELS 3 Zrotation Xrotation Yrotation
    JOINT left_femur_tibia
    {
      OFFSET 0.8047443 -44.0398 -0.1307829
      CHANNELS 3 Zrotation Xrotation Yrotation
      JOINT left_tibia_foot
      {
        OFFSET -4.370144 -48.10324 -4.275266
        CHANNELS 3 Zrotation Xrotation Yrotation
        End Site
        {
          OFFSET 0 -5 15
        }
      }
    }
  }
  JOINT pelvis_spine1
  {
    OFFSET 0 6.468898 -3.129235
    CHANNELS 3 Zrotation Xrotation Yrotation
    JOINT spine1
    {
      OFFSET 0 23.15396 4.99043
      CHANNELS 3 Zrotation Xrotation Yrotation
      JOINT spine2
      {
        OFFSET 0 20.79997 -5.064912
        CHANNELS 3 Zrotation Xrotation Yrotation
        JOINT neck
        {
          OFFSET 0 14.38658 9.616178
          CHANNELS 3 Zrotation Xrotation Yrotation
          End Site
          {
            OFFSET 0 20 0
          }
        }
      }
      JOINT right_manubrium
      {
        OFFSET -5.722621 16.35077 3.967754
        CHANNELS 3 Zrotation Xrotation Yrotation
        JOINT right_clavicle
        {
          OFFSET -13.16364 1.694482 -4.693211
          CHANNELS 3 Zrotation Xrotation Yrotation
          JOINT right_humerus
          {
            OFFSET -28.5034 -0.3100689 -2.792744
            CHANNELS 3 Zrotation Xrotation Yrotation
            JOINT right_radius
            {
              OFFSET -25.15693 0.02248979 -1.271978
              CHANNELS 3 Zrotation Xrotation Yrotation
              End Site
              {
                OFFSET -15 0 0
              }
            }
          }
        }
      }
      JOINT left_manubrium
      {
        OFFSET 5.722621 16.35077 3.967754
        CHANNELS 3 Zrotation Xrotation Yrotation
        JOINT left_clavicle
        {
          OFFSET 13.16364 1.694482 -4.693211
          CHANNELS 3 Zrotation Xrotation Yrotation
          JOINT left_humerus
          {
            OFFSET 29.39168 -1.063119 -2.237045
            CHANNELS 3 Zrotation Xrotation Yrotation
            JOINT left_radius
            {
              OFFSET 24.59957 -0.9528479 0.9047498
              CHANNELS 3 Zrotation Xrotation Yrotation
              End Site
              {
                OFFSET 15 -0 -0
              }
            }
          }
        }
      }
    }
  }
}
MOTION
Frames: 13
Frame Time: 0.0416666666667
-578.4197 105.6394 -357.7706 8.894975 -2.37967 83.58997 6.234679 17.96787 2.291226 -0 18.08744 -0 -10.84342 -17.2669 -3.587188 5.046278 -20.94657 -3.79868 -0 14.38422 -0 2.181368 1.062575 16.37152 1.125371 -4.126052 7.942819 0.6413921 15.87145 -6.221202 1.200734 20.03108 1.711639 0.337012 -18.02809 4.1354 -1.186391 -31.59152 12.85521 87.44012 17.65018 -9.157972 -0 0 30.41642 -21.70349 16.94592 13.07258 1.521408 -22.23315 -7.71261 -98.12914 13.58448 39.48825 0 0 -1.954158 3.849483 15.78279 7.081343
-573.2627 105.6351 -358.1566 8.871395 -2.46676 83.03226 6.234679 17.96787 2.291226 -0 18.08744 -0 -10.84342 -17.2669 -3.587188 5.046278 -20.94657 -3.79868 -0 14.38422 -0 2.181368 1.062575 16.37152 1.125371 -4.126052 7.942819 0.6413921 15.87145 -6.221202 1.200734 20.03108 1.711639 0.337012 -18.02809 4.1354 -1.186391 -31.59152 12.85521 87.44012 17.65018 -9.157972 -0 0 30.41642 -21.70349 16.94592 13.07258 1.521408 -22.23315 -7.71261 -98.12914 13.58448 39.48825 0 0 -1.954158 3.849483 15.78279 7.081343
-568.1022 105.6308 -358.4918 8.846966 -2.553616 82.47448 6.234679 17.96787 2.291226 -0 18.08744 -0 -10.84342 -17.2669 -3.587188 5.046278 -20.94657 -3.79868 -0 14.38422 -0 2.181368 1.062575 16.37152 1.125371 -4.126052 7.942819 0.6413921 15.87145 -6.221202 1.200734 20.03108 1.711639 0.337012 -18.02809 4.1354 -1.186391 -31.59152 12.85521 87.44012 17.65018 -9.157972 -0 0 30.41642 -21.70349 16.94592 13.07258 1.521408 -22.23315 -7.71261 -98.12914 13.58448 39.48825 0 0 -1.954158 3.849483 15.78279 7.081343
-562.9386 105.6266 -358.7762 8.821689 -2.64023 81.91662 6.234679 17.96787 2.291226 -0 18.08744 -0 -10.84342 -17.2669 -3.587188 5.046278 -20.94657 -3.79868 -0 14.38422 -0 2.181368 1.062575 16.37152 1.125371 -4.126052 7.942819 0.6413921 15.87145 -6.221202 1.200734 20.03108 1.711639 0.337012 -18.02809 4.1354 -1.186391 -31.59152 12.85521 87.44012 17.65018 -9.157972 -0 0 30.41642 -21.70349 16.94592 13.07258 1.521408 -22.23315 -7.71261 -98.12914 13.58448 39.48825 0 0 -1.954158 3.849483 15.78279 7.081343
-557.7724 105.6223 -359.0098 8.795568 -2.726595 81.35869 6.234679 17.96787 2.291226 -0 18.08744 -0 -10.84342 -17.2669 -3.587188 5.046278 -20.94657 -3.79868 -0 14.38422 -0 2.181368 1.062575 16.37152 1.125371 -4.126052 7.942819 0.6413921 15.87145 -6.221202 1.200734 20.03108 1.711639 0.337012 -18.02809 4.1354 -1.186391 -31.59152 12.85521 87.44012 17.65018 -9.157972 -0 0 30.41642 -21.70349 16.94592 13.07258 1.521408 -22.23315 -7.71261 -98.12914 13.58448 39.48825 0 0 -1.954158 3.849483 15.78279 7.081343
-552.6043 105.6181 -359.1925 8.768604 -2.812701 80.80068 6.234679 17.96787 2.291226 -0 18.08744 -0 -10.84342 -17.2669 -3.587188 5.046278 -20.94657 -3.79868 -0 14.38422 -0 2.181368 1.062575 16.37152 1.125371 -4.126052 7.942819 0.6413921 15.87145 -6.221202 1.200734 20.03108 1.711639 0.337012 -18.02809 4.1354 -1.186391 -31.59152 12.85521 87.44012 17.65018 -9.157972 -0 0 30.41642 -21.70349 16.94592 13.07258 1.521408 -22.23315 -7.71261 -98.12914 13.58448 39.48825 0 0 -1.954158 3.849483 15.78279 7.081343
-547.4345 105.6138 -359.3243 8.7408 -2.898541 80.24258 6.234679 17.96787 2.291226 -0 18.08744 -0 -10.84342 -17.2669 -3.587188 5.046278 -20.94657 -3.79868 -0 14.38422 -0 2.181368 1.062575 16.37152 1.125371 -4.126052 7.942819 0.6413921 15.87145 -6.221202 1.200734 20.03108 1.711639 0.337012 -18.02809 4.1354 -1.186391 -31.59152 12.85521 87.44012 17.65018 -9.157972 -0 0 30.41642 -21.70349 16.94592 13.07258 1.521408 -22.23315 -7.71261 -98.12914 13.58448 39.48825 0 0 -1.954158 3.849483 15.78279 7.081343
-542.2637 105.6095 -359.4052 8.712158 -2.984106 79.6844 6.234679 17.96787 2.291226 -0 18.08744 -0 -10.84342 -17.2669 -3.587188 5.046278 -20.94657 -3.79868 -0 14.38422 -0 2.181368 1.062575 16.37152 1.125371 -4.126052 7.942819 0.6413921 15.87145 -6.221202 1.200734 20.03108 1.711639 0.337012 -18.02809 4.1354 -1.186391 -31.59152 12.85521 87.44012 17.65018 -9.157972 -0 0 30.41642 -21.70349 16.94592 13.07258 1.521408 -22.23315 -7.71261 -98.12914 13.58448 39.48825 0 0 -1.954158 3.849483 15.78279 7.081343
-537.0924 105.6053 -359.4353 8.68268 -3.069389 79.12614 6.234679 17.96787 2.291226 -0 18.08744 -0 -10.84342 -17.2669 -3.587188 5.046278 -20.94657 -3.79868 -0 14.38422 -0 2.181368 1.062575 16.37152 1.125371 -4.126052 7.942819 0.6413921 15.87145 -6.221202 1.200734 20.03108 1.711639 0.337012 -18.02809 4.1354 -1.186391 -31.59152 12.85521 87.44012 17.65018 -9.157972 -0 0 30.41642 -21.70349 16.94592 13.07258 1.521408 -22.23315 -7.71261 -98.12914 13.58448 39.48825 0 0 -1.954158 3.849483 15.78279 7.081343
-531.921 105.601 -359.4144 8.652369 -3.154381 78.56778 6.234679 17.96787 2.291226 -0 18.08744 -0 -10.84342 -17.2669 -3.587188 5.046278 -20.94657 -3.79868 -0 14.38422 -0 2.181368 1.062575 16.37152 1.125371 -4.126052 7.942819 0.6413921 15.87145 -6.221202 1.200734 20.03108 1.711639 0.337012 -18.02809 4.1354 -1.186391 -31.59152 12.85521 87.44012 17.65018 -9.157972 -0 0 30.41642 -21.70349 16.94592 13.07258 1.521408 -22.23315 -7.71261 -98.12914 13.58448 39.48825 0 0 -1.954158 3.849483 15.78279 7.081343
-526.7501 105.5967 -359.3426 8.621227 -3.239073 78.00933 6.234679 17.96787 2.291226 -0 18.08744 -0 -10.84342 -17.2669 -3.587188 5.046278 -20.94657 -3.79868 -0 14.38422 -0 2.181368 1.062575 16.37152 1.125371 -4.126052 7.942819 0.6413921 15.87145 -6.221202 1.200734 20.03108 1.711639 0.337012 -18.02809 4.1354 -1.186391 -31.59152 12.85521 87.44012 17.65018 -9.157972 -0 0 30.41642 -21.70349 16.94592 13.07258 1.521408 -22.23315 -7.71261 -98.12914 13.58448 39.48825 0 0 -1.954158 3.849483 15.78279 7.081343
-521.5801 105.5925 -359.22 8.589258 -3.323459 77.45079 6.234679 17.96787 2.291226 -0 18.08744 -0 -10.84342 -17.2669 -3.587188 5.046278 -20.94657 -3.79868 -0 14.38422 -0 2.181368 1.062575 16.37152 1.125371 -4.126052 7.942819 0.6413921 15.87145 -6.221202 1.200734 20.03108 1.711639 0.337012 -18.02809 4.1354 -1.186391 -31.59152 12.85521 87.44012 17.65018 -9.157972 -0 0 30.41642 -21.70349 16.94592 13.07258 1.521408 -22.23315 -7.71261 -98.12914 13.58448 39.48825 0 0 -1.954158 3.849483 15.78279 7.081343
-516.4116 105.5882 -359.0464 8.556462 -3.407529 76.89216 6.234679 17.96787 2.291226 -0 18.08744 -0 -10.84342 -17.2669 -3.587188 5.046278 -20.94657 -3.79868 -0 14.38422 -0 2.181368 1.062575 16.37152 1.125371 -4.126052 7.942819 0.6413921 15.87145 -6.221202 1.200734 20.03108 1.711639 0.337012 -18.02809 4.1354 -1.186391 -31.59152 12.85521 87.44012 17.65018 -9.157972 -0 0 30.41642 -21.70349 16.94592 13.07258 1.521408 -22.23315 -7.71261 -98.12914 13.58448 39.48825 0 0 -1.954158 3.849483 15.78279 7.081343
